<mxfile host="app.diagrams.net" modified="2024-04-09T22:40:58.683Z" agent="Mozilla/5.0 (Windows NT 10.0; Win64; x64; rv:124.0) Gecko/20100101 Firefox/124.0" version="24.2.2" etag="J3CxCd5hfvnxaR_7NHL3" type="github">
  <diagram name="PÃ¡gina-1" id="yB1KJGCh_KnU2NvS2O2H">
    <mxGraphModel>
      <root>
        <mxCell id="0" />
        <mxCell id="1" parent="0" />
      </root>
    </mxGraphModel>
  </diagram>
</mxfile>
